# This file uses centimeters as units for non-parametric coordinates.

v -1.000000 0.000000 -0.000003
v 0.000000 0.000000 -0.000003
v -1.000000 0.000000 -1.000000
v -0.000002 0.000000 -1.000000
v -1.000000 -0.250000 -0.000003
v 0.000000 -0.250000 -0.000003
v -1.000000 -0.250000 -0.999998
v -0.000002 -0.250000 -0.999998
v -1.000000 0.000000 -2.000000
v -0.000002 0.000000 -2.000000
v -0.000002 -0.250000 -2.000006
v -1.000000 -0.250000 -2.000006
v -1.000000 0.000000 -3.000000
v -0.000002 0.000000 -3.000000
v -0.000002 -0.250000 -2.999990
v -1.000000 -0.250000 -2.999990
v -1.000000 0.000000 -4.000000
v -0.000002 0.000000 -4.000000
v -0.000002 -0.250000 -3.999990
v -1.000000 -0.250000 -3.999990
v -1.000000 0.000000 -5.000000
v -0.000002 0.000000 -5.000000
v -0.000002 -0.250000 -4.999990
v -1.000000 -0.250000 -4.999990
v -2.000008 0.000000 -0.000003
v -2.000008 0.000000 -1.000000
v -2.000000 0.000000 -2.000000
v -2.000000 0.000000 -3.000000
v -2.000000 0.000000 -4.000000
v -2.000000 0.000000 -5.000000
v -2.000000 -0.250000 -4.999990
v -2.000000 -0.250000 -3.999990
v -2.000000 -0.250000 -2.999990
v -2.000000 -0.250000 -2.000006
v -2.000008 -0.250000 -0.999998
v -2.000008 -0.250000 -0.000003
v -3.000015 0.000000 -0.000003
v -3.000015 0.000000 -1.000000
v -3.000015 0.000000 -2.000000
v -3.000015 0.000000 -3.000000
v -3.000015 0.000000 -4.000000
v -2.999985 0.000000 -5.000000
v -2.999985 -0.250000 -4.999990
v -3.000015 -0.250000 -3.999990
v -3.000015 -0.250000 -2.999990
v -3.000015 -0.250000 -2.000006
v -3.000015 -0.250000 -0.999998
v -3.000015 -0.250000 -0.000003
v -4.000015 0.000000 -0.000002
v -4.000015 0.000000 -1.000000
v -4.000015 0.000000 -2.000000
v -4.000015 0.000000 -3.000000
v -3.999985 0.000000 -4.000000
v -4.000015 0.000000 -5.000000
v -4.000015 -0.250000 -4.999990
v -3.999985 -0.250000 -3.999990
v -4.000015 -0.250000 -2.999990
v -4.000015 -0.250000 -2.000006
v -4.000015 -0.250000 -0.999998
v -4.000015 -0.250000 -0.000002
v -5.000000 0.000000 -0.000002
v -5.000000 0.000000 -1.000000
v -5.000000 0.000000 -2.000000
v -5.000000 0.000000 -3.000000
v -5.000000 0.000000 -4.000000
v -5.000000 0.000000 -5.000000
v -5.000000 -0.250000 -4.999990
v -5.000000 -0.250000 -3.999990
v -5.000000 -0.250000 -2.999990
v -5.000000 -0.250000 -2.000006
v -5.000000 -0.250000 -0.999998
v -5.000000 -0.250000 -0.000002
vt -0.000000 0.000000
vt 1.000000 -0.000000
vt 0.000000 1.000000
vt 1.000000 1.000000
vt 1.000000 0.000000
vt 0.000000 -0.000000
vt 1.000000 1.000000
vt 0.000000 1.000000
vt 0.000001 2.000000
vt 1.000000 2.000000
vt 2.000000 0.498750
vt 0.999999 2.000000
vt 0.000001 3.000000
vt 1.000001 3.000000
vt 3.000000 0.498750
vt 0.999999 3.000000
vt 0.000001 4.000000
vt 1.000001 4.000000
vt 4.000000 0.498750
vt 0.999999 4.000000
vt 0.999998 0.748750
vt -0.000001 0.748750
vt -0.000001 0.498750
vt 0.999998 0.498750
vt -1.000000 0.000001
vt -0.999999 1.000000
vt -0.999999 2.000000
vt -0.999999 3.000000
vt -0.999998 4.000000
vt -0.999998 5.000000
vt 1.999998 0.498750
vt 1.999998 4.000000
vt 1.999999 3.000000
vt 1.999999 2.000000
vt 1.999999 1.000000
vt 2.000000 0.000001
vt -2.000000 0.000001
vt -1.999999 1.000001
vt -1.999999 2.000000
vt -1.999999 3.000000
vt -1.999998 4.000001
vt -1.999998 5.000001
vt 2.999998 0.498750
vt 2.999998 4.000001
vt 2.999999 3.000000
vt 2.999999 2.000000
vt 2.999999 1.000001
vt 3.000000 0.000001
vt -3.000000 0.000001
vt -2.999998 1.000001
vt -2.999999 2.000001
vt -2.999998 3.000001
vt -2.999998 4.000001
vt -2.999997 5.000001
vt 3.999997 0.498750
vt 3.999998 4.000001
vt 3.999998 3.000001
vt 3.999999 2.000001
vt 3.999998 1.000001
vt 4.000000 0.000001
vt 0.999998 0.748750
vt -0.000002 0.748750
vt -1.000001 0.748750
vt -2.000001 0.748750
vt -3.000001 0.748750
vt -4.000002 0.748750
vt -4.000002 0.498750
vt -3.000001 0.498750
vt -2.000001 0.498750
vt -1.000001 0.498750
vt -0.000002 0.498750
vt 0.999998 0.498750
vt -0.000000 0.748750
vt -0.000000 0.498750
vt 1.000000 0.498750
vt 1.000000 0.748750
vt -0.000000 0.748750
vt -0.000000 0.498750
vt 1.000000 0.498750
vt 1.000000 0.748750
vt 1.000000 0.748750
vt 1.000000 0.498750
vt 2.000000 0.748750
vt -0.000000 2.000000
vt 2.000000 0.748750
vt 3.000000 0.748750
vt -0.000000 2.000000
vt -0.000001 3.000000
vt 3.000000 0.748750
vt 4.000000 0.748750
vt -0.000001 3.000000
vt -0.000001 4.000000
vt 1.000001 5.000000
vt 0.000002 5.000000
vt 4.000000 0.748750
vt 5.000000 0.498750
vt 5.000000 0.748750
vt -0.000001 4.000000
vt 0.999998 5.000000
vt -0.000001 5.000000
vt 0.000002 5.000000
vt 1.999998 0.748750
vt 0.999998 5.000000
vt 1.999998 5.000000
vt -0.000000 0.498750
vt -0.000000 0.748750
vt -1.000000 0.748750
vt -1.000000 0.498750
vt 1.999998 0.748750
vt 2.999998 0.748750
vt 1.999998 5.000000
vt 2.999998 5.000001
vt -1.000000 0.498750
vt -1.000000 0.748750
vt -2.000000 0.748750
vt -2.000000 0.498750
vt 2.999998 0.748750
vt 3.999997 0.748750
vt 2.999998 5.000001
vt 3.999997 5.000001
vt -2.000000 0.498750
vt -2.000000 0.748750
vt -3.000000 0.748750
vt -3.000000 0.498750
vt -3.999998 1.000002
vt -3.999999 0.000002
vt -3.999998 2.000001
vt -3.999998 1.000002
vt -3.999997 3.000001
vt -3.999998 2.000001
vt -3.999998 4.000001
vt -3.999997 3.000001
vt -3.999997 5.000002
vt -3.999998 4.000001
vt 3.999997 0.748750
vt 4.999997 0.498750
vt 4.999997 0.748750
vt 3.999997 5.000001
vt 4.999998 4.000001
vt 4.999997 5.000002
vt 4.999997 3.000001
vt 4.999998 4.000001
vt 4.999998 2.000001
vt 4.999997 3.000001
vt 4.999998 1.000002
vt 4.999998 2.000001
vt 4.999999 0.000002
vt 4.999998 1.000002
vt -3.000000 0.498750
vt -3.000000 0.748750
vt -3.999999 0.748750
vt -3.999999 0.498750
vn 0.000000 1.000000 0.000000
vn 0.000000 1.000000 0.000000
vn 0.000000 1.000000 0.000000
vn 0.000000 1.000000 0.000000
vn 0.000000 -1.000000 -0.000000
vn 0.000000 -1.000000 -0.000000
vn 0.000000 -1.000000 -0.000000
vn 0.000000 -1.000000 -0.000000
vn 0.000000 -0.000000 1.000000
vn 0.000000 -0.000000 1.000000
vn 0.000000 -0.000000 1.000000
vn 0.000000 -0.000000 1.000000
vn 1.000000 0.000000 -0.000002
vn 1.000000 0.000000 -0.000002
vn 1.000000 0.000000 -0.000002
vn 1.000000 0.000000 -0.000002
vn 0.000001 0.000000 -1.000000
vn 0.000001 0.000000 -1.000000
vn 0.000001 0.000000 -1.000000
vn 0.000001 0.000000 -1.000000
vn -1.000000 0.000000 -0.000002
vn -1.000000 0.000000 -0.000002
vn -1.000000 0.000000 -0.000002
vn -1.000000 0.000000 -0.000002
vn 0.000000 1.000000 0.000000
vn 0.000000 1.000000 0.000000
vn 0.000000 1.000000 0.000000
vn 0.000000 1.000000 0.000000
vn 1.000000 0.000000 0.000000
vn 1.000000 0.000000 0.000000
vn 1.000000 0.000000 0.000000
vn 1.000000 0.000000 0.000000
vn 0.000000 -1.000000 -0.000000
vn 0.000000 -1.000000 -0.000000
vn 0.000000 -1.000000 -0.000000
vn 0.000000 -1.000000 -0.000000
vn -1.000000 -0.000000 0.000002
vn -1.000000 -0.000000 0.000002
vn -1.000000 -0.000000 0.000002
vn -1.000000 -0.000000 0.000002
vn 0.000000 1.000000 0.000000
vn 0.000000 1.000000 0.000000
vn 0.000000 1.000000 0.000000
vn 0.000000 1.000000 0.000000
vn 1.000000 0.000000 0.000000
vn 1.000000 0.000000 0.000000
vn 1.000000 0.000000 0.000000
vn 1.000000 0.000000 0.000000
vn 0.000000 -1.000000 -0.000000
vn 0.000000 -1.000000 -0.000000
vn 0.000000 -1.000000 -0.000000
vn 0.000000 -1.000000 -0.000000
vn -1.000000 0.000000 0.000000
vn -1.000000 0.000000 0.000000
vn -1.000000 0.000000 0.000000
vn -1.000000 0.000000 0.000000
vn 0.000000 1.000000 0.000000
vn 0.000000 1.000000 0.000000
vn 0.000000 1.000000 0.000000
vn 0.000000 1.000000 0.000000
vn 1.000000 0.000000 0.000000
vn 1.000000 0.000000 0.000000
vn 1.000000 0.000000 0.000000
vn 1.000000 0.000000 0.000000
vn 0.000000 -1.000000 -0.000000
vn 0.000000 -1.000000 -0.000000
vn 0.000000 -1.000000 -0.000000
vn 0.000000 -1.000000 -0.000000
vn -1.000000 0.000000 0.000000
vn -1.000000 0.000000 0.000000
vn -1.000000 0.000000 0.000000
vn -1.000000 0.000000 0.000000
vn 0.000000 1.000000 0.000000
vn 0.000000 1.000000 0.000000
vn 0.000000 1.000000 0.000000
vn 0.000000 1.000000 0.000000
vn 1.000000 0.000000 0.000000
vn 1.000000 0.000000 0.000000
vn 1.000000 0.000000 0.000000
vn 1.000000 0.000000 0.000000
vn 0.000000 -1.000000 -0.000000
vn 0.000000 -1.000000 -0.000000
vn 0.000000 -1.000000 -0.000000
vn 0.000000 -1.000000 -0.000000
vn -1.000000 0.000000 0.000000
vn -1.000000 0.000000 0.000000
vn -1.000000 0.000000 0.000000
vn -1.000000 0.000000 0.000000
vn 0.000000 1.000000 0.000000
vn 0.000000 1.000000 0.000000
vn 0.000000 1.000000 0.000000
vn 0.000000 1.000000 0.000000
vn 0.000000 1.000000 0.000000
vn 0.000000 1.000000 0.000000
vn 0.000000 1.000000 0.000000
vn 0.000000 1.000000 0.000000
vn 0.000000 1.000000 0.000000
vn 0.000000 1.000000 0.000000
vn 0.000000 1.000000 0.000000
vn 0.000000 1.000000 0.000000
vn 0.000000 1.000000 0.000000
vn 0.000000 1.000000 0.000000
vn 0.000000 1.000000 0.000000
vn 0.000000 1.000000 0.000000
vn 0.000000 1.000000 0.000000
vn 0.000000 1.000000 0.000000
vn 0.000000 1.000000 0.000000
vn 0.000000 1.000000 0.000000
vn -0.000001 0.000000 -1.000000
vn -0.000001 0.000000 -1.000000
vn -0.000001 0.000000 -1.000000
vn -0.000001 0.000000 -1.000000
vn 0.000000 -1.000000 -0.000000
vn 0.000000 -1.000000 -0.000000
vn 0.000000 -1.000000 -0.000000
vn 0.000000 -1.000000 -0.000000
vn 0.000000 -1.000000 -0.000000
vn 0.000000 -1.000000 -0.000000
vn 0.000000 -1.000000 -0.000000
vn 0.000000 -1.000000 -0.000000
vn 0.000000 -1.000000 -0.000000
vn 0.000000 -1.000000 -0.000000
vn 0.000000 -1.000000 -0.000000
vn 0.000000 -1.000000 -0.000000
vn 0.000000 -1.000000 -0.000000
vn 0.000000 -1.000000 -0.000000
vn 0.000000 -1.000000 -0.000000
vn 0.000000 -1.000000 -0.000000
vn 0.000000 -1.000000 -0.000000
vn 0.000000 -1.000000 -0.000000
vn 0.000000 -1.000000 -0.000000
vn 0.000000 -1.000000 -0.000000
vn 0.000000 -0.000000 1.000000
vn 0.000000 -0.000000 1.000000
vn 0.000000 -0.000000 1.000000
vn 0.000000 -0.000000 1.000000
vn 0.000000 1.000000 0.000000
vn 0.000000 1.000000 0.000000
vn 0.000000 1.000000 0.000000
vn 0.000000 1.000000 0.000000
vn 0.000000 1.000000 0.000000
vn 0.000000 1.000000 0.000000
vn 0.000000 1.000000 0.000000
vn 0.000000 1.000000 0.000000
vn 0.000000 1.000000 0.000000
vn 0.000000 1.000000 0.000000
vn 0.000000 1.000000 0.000000
vn 0.000000 1.000000 0.000000
vn 0.000000 1.000000 0.000000
vn 0.000000 1.000000 0.000000
vn 0.000000 1.000000 0.000000
vn 0.000000 1.000000 0.000000
vn 0.000000 1.000000 0.000000
vn 0.000000 1.000000 0.000000
vn 0.000000 1.000000 0.000000
vn 0.000000 1.000000 0.000000
vn 0.000000 0.000000 -1.000000
vn 0.000000 0.000000 -1.000000
vn 0.000000 0.000000 -1.000000
vn 0.000000 0.000000 -1.000000
vn 0.000000 -1.000000 -0.000000
vn 0.000000 -1.000000 -0.000000
vn 0.000000 -1.000000 -0.000000
vn 0.000000 -1.000000 -0.000000
vn 0.000000 -1.000000 -0.000000
vn 0.000000 -1.000000 -0.000000
vn 0.000000 -1.000000 -0.000000
vn 0.000000 -1.000000 -0.000000
vn 0.000000 -1.000000 -0.000000
vn 0.000000 -1.000000 -0.000000
vn 0.000000 -1.000000 -0.000000
vn 0.000000 -1.000000 -0.000000
vn 0.000000 -1.000000 -0.000000
vn 0.000000 -1.000000 -0.000000
vn 0.000000 -1.000000 -0.000000
vn 0.000000 -1.000000 -0.000000
vn 0.000000 -1.000000 -0.000000
vn 0.000000 -1.000000 -0.000000
vn 0.000000 -1.000000 -0.000000
vn 0.000000 -1.000000 -0.000000
vn 0.000000 -0.000000 1.000000
vn 0.000000 -0.000000 1.000000
vn 0.000000 -0.000000 1.000000
vn 0.000000 -0.000000 1.000000
vn 0.000000 1.000000 0.000000
vn 0.000000 1.000000 0.000000
vn 0.000000 1.000000 0.000000
vn 0.000000 1.000000 0.000000
vn 0.000000 1.000000 0.000000
vn 0.000000 1.000000 0.000000
vn 0.000000 1.000000 0.000000
vn 0.000000 1.000000 0.000000
vn 0.000000 1.000000 0.000000
vn 0.000000 1.000000 0.000000
vn 0.000000 1.000000 0.000000
vn 0.000000 1.000000 0.000000
vn 0.000000 1.000000 0.000000
vn 0.000000 1.000000 0.000000
vn 0.000000 1.000000 0.000000
vn 0.000000 1.000000 0.000000
vn 0.000000 1.000000 0.000000
vn 0.000000 1.000000 0.000000
vn 0.000000 1.000000 0.000000
vn 0.000000 1.000000 0.000000
vn -0.000001 0.000000 -1.000000
vn -0.000001 0.000000 -1.000000
vn -0.000001 0.000000 -1.000000
vn -0.000001 0.000000 -1.000000
vn 0.000000 -1.000000 -0.000000
vn 0.000000 -1.000000 -0.000000
vn 0.000000 -1.000000 -0.000000
vn 0.000000 -1.000000 -0.000000
vn 0.000000 -1.000000 -0.000000
vn 0.000000 -1.000000 -0.000000
vn 0.000000 -1.000000 -0.000000
vn 0.000000 -1.000000 -0.000000
vn 0.000000 -1.000000 -0.000000
vn 0.000000 -1.000000 -0.000000
vn 0.000000 -1.000000 -0.000000
vn 0.000000 -1.000000 -0.000000
vn 0.000000 -1.000000 -0.000000
vn 0.000000 -1.000000 -0.000000
vn 0.000000 -1.000000 -0.000000
vn 0.000000 -1.000000 -0.000000
vn 0.000000 -1.000000 -0.000000
vn 0.000000 -1.000000 -0.000000
vn 0.000000 -1.000000 -0.000000
vn 0.000000 -1.000000 -0.000000
vn 0.000001 -0.000000 1.000000
vn 0.000001 -0.000000 1.000000
vn 0.000001 -0.000000 1.000000
vn 0.000001 -0.000000 1.000000
vn 0.000000 1.000000 0.000000
vn 0.000000 1.000000 0.000000
vn 0.000000 1.000000 0.000000
vn 0.000000 1.000000 0.000000
vn 0.000000 1.000000 0.000000
vn 0.000000 1.000000 0.000000
vn 0.000000 1.000000 0.000000
vn 0.000000 1.000000 0.000000
vn 0.000000 1.000000 0.000000
vn 0.000000 1.000000 0.000000
vn 0.000000 1.000000 0.000000
vn 0.000000 1.000000 0.000000
vn 0.000000 1.000000 0.000000
vn 0.000000 1.000000 0.000000
vn 0.000000 1.000000 0.000000
vn 0.000000 1.000000 0.000000
vn 0.000000 1.000000 0.000000
vn 0.000000 1.000000 0.000000
vn 0.000000 1.000000 0.000000
vn 0.000000 1.000000 0.000000
vn 0.000001 0.000000 -1.000000
vn 0.000001 0.000000 -1.000000
vn 0.000001 0.000000 -1.000000
vn 0.000001 0.000000 -1.000000
vn 0.000000 -1.000000 -0.000000
vn 0.000000 -1.000000 -0.000000
vn 0.000000 -1.000000 -0.000000
vn 0.000000 -1.000000 -0.000000
vn 0.000000 -1.000000 -0.000000
vn 0.000000 -1.000000 -0.000000
vn 0.000000 -1.000000 -0.000000
vn 0.000000 -1.000000 -0.000000
vn 0.000000 -1.000000 -0.000000
vn 0.000000 -1.000000 -0.000000
vn 0.000000 -1.000000 -0.000000
vn 0.000000 -1.000000 -0.000000
vn 0.000000 -1.000000 -0.000000
vn 0.000000 -1.000000 -0.000000
vn 0.000000 -1.000000 -0.000000
vn 0.000000 -1.000000 -0.000000
vn 0.000000 -1.000000 -0.000000
vn 0.000000 -1.000000 -0.000000
vn 0.000000 -1.000000 -0.000000
vn 0.000000 -1.000000 -0.000000
vn 0.000000 -0.000000 1.000000
vn 0.000000 -0.000000 1.000000
vn 0.000000 -0.000000 1.000000
vn 0.000000 -0.000000 1.000000
s off
f 4/4/1 3/3/2 1/1/3 2/2/4
f 8/8/5 6/6/6 5/5/7 7/7/8
f 6/75/9 2/76/10 1/73/11 5/74/12
f 8/79/13 4/80/14 2/77/15 6/78/16
f 24/24/17 21/21/18 22/22/19 23/23/20
f 72/72/21 61/61/22 62/62/23 71/71/24
f 10/10/25 9/9/26 3/3/27 4/4/28
f 11/11/29 10/83/30 4/81/31 8/82/32
f 12/12/33 11/84/34 8/8/35 7/7/36
f 63/63/37 70/70/38 71/71/39 62/62/40
f 14/14/41 13/13/42 9/9/43 10/10/44
f 15/15/45 14/86/46 10/85/47 11/11/48
f 16/16/49 15/88/50 11/87/51 12/12/52
f 64/64/53 69/69/54 70/70/55 63/63/56
f 18/18/57 17/17/58 13/13/59 14/14/60
f 19/19/61 18/90/62 14/89/63 15/15/64
f 20/20/65 19/92/66 15/91/67 16/16/68
f 65/65/69 68/68/70 69/69/71 64/64/72
f 22/93/73 21/94/74 17/17/75 18/18/76
f 23/96/77 22/97/78 18/95/79 19/19/80
f 24/99/81 23/100/82 19/98/83 20/20/84
f 66/66/85 67/67/86 68/68/87 65/65/88
f 26/26/89 25/25/90 1/1/91 3/3/92
f 27/27/93 26/26/94 3/3/95 9/9/96
f 28/28/97 27/27/98 9/9/99 13/13/100
f 29/29/101 28/28/102 13/13/103 17/17/104
f 30/30/105 29/29/106 17/17/107 21/101/108
f 31/31/109 30/102/110 21/21/111 24/24/112
f 32/32/113 31/104/114 24/103/115 20/20/116
f 33/33/117 32/32/118 20/20/119 16/16/120
f 34/34/121 33/33/122 16/16/123 12/12/124
f 35/35/125 34/34/126 12/12/127 7/7/128
f 36/36/129 35/35/130 7/7/131 5/5/132
f 25/107/133 36/108/134 5/105/135 1/106/136
f 38/38/137 37/37/138 25/25/139 26/26/140
f 39/39/141 38/38/142 26/26/143 27/27/144
f 40/40/145 39/39/146 27/27/147 28/28/148
f 41/41/149 40/40/150 28/28/151 29/29/152
f 42/42/153 41/41/154 29/29/155 30/30/156
f 43/43/157 42/110/158 30/109/159 31/31/160
f 44/44/161 43/112/162 31/111/163 32/32/164
f 45/45/165 44/44/166 32/32/167 33/33/168
f 46/46/169 45/45/170 33/33/171 34/34/172
f 47/47/173 46/46/174 34/34/175 35/35/176
f 48/48/177 47/47/178 35/35/179 36/36/180
f 37/115/181 48/116/182 36/113/183 25/114/184
f 50/50/185 49/49/186 37/37/187 38/38/188
f 51/51/189 50/50/190 38/38/191 39/39/192
f 52/52/193 51/51/194 39/39/195 40/40/196
f 53/53/197 52/52/198 40/40/199 41/41/200
f 54/54/201 53/53/202 41/41/203 42/42/204
f 55/55/205 54/118/206 42/117/207 43/43/208
f 56/56/209 55/120/210 43/119/211 44/44/212
f 57/57/213 56/56/214 44/44/215 45/45/216
f 58/58/217 57/57/218 45/45/219 46/46/220
f 59/59/221 58/58/222 46/46/223 47/47/224
f 60/60/225 59/59/226 47/47/227 48/48/228
f 49/123/229 60/124/230 48/121/231 37/122/232
f 62/125/233 61/126/234 49/49/235 50/50/236
f 63/127/237 62/128/238 50/50/239 51/51/240
f 64/129/241 63/130/242 51/51/243 52/52/244
f 65/131/245 64/132/246 52/52/247 53/53/248
f 66/133/249 65/134/250 53/53/251 54/54/252
f 67/136/253 66/137/254 54/135/255 55/55/256
f 68/139/257 67/140/258 55/138/259 56/56/260
f 69/141/261 68/142/262 56/56/263 57/57/264
f 70/143/265 69/144/266 57/57/267 58/58/268
f 71/145/269 70/146/270 58/58/271 59/59/272
f 72/147/273 71/148/274 59/59/275 60/60/276
f 61/151/277 72/152/278 60/149/279 49/150/280
